<?xml version="1.0" encoding="utf-8"?>
<!-- Generator: Adobe Illustrator 19.2.0, SVG Export Plug-In . SVG Version: 6.00 Build 0)  -->
<svg version="1.1" id="Layer_1" xmlns="http://www.w3.org/2000/svg" xmlns:xlink="http://www.w3.org/1999/xlink" x="0px" y="0px"
	 viewBox="0 0 152.1 80.3" style="enable-background:new 0 0 152.1 80.3;" xml:space="preserve">
<style type="text/css">
	.st0{fill:url(#SVGID_1_);}
	.st1{fill:#FFFFFF;}
</style>
<g>
	<linearGradient id="SVGID_1_" gradientUnits="userSpaceOnUse" x1="0" y1="40.168" x2="152.1104" y2="40.168">
		<stop  offset="0" style="stop-color:#E71E25"/>
		<stop  offset="8.850461e-02" style="stop-color:#CC2D35"/>
		<stop  offset="0.3397" style="stop-color:#84555E"/>
		<stop  offset="0.5654" style="stop-color:#4B747F"/>
		<stop  offset="0.7576" style="stop-color:#228B96"/>
		<stop  offset="0.9087" style="stop-color:#0999A5"/>
		<stop  offset="1" style="stop-color:#009EAA"/>
	</linearGradient>
	<path class="st0" d="M150.8,29.4c-1.1-4.7-3-8.4-5.6-11.1c-2.8-2.8-6.4-4.6-10.9-5.5l-2.7-0.5h-1.8c-2.6,0-5.1,0.5-7.4,1.4
		c-1.7-1-3.8-1.5-6.1-1.5c-2.4,0-4.5,0.6-6.5,1.7c-0.4,0.3-0.9,0.6-1.3,0.9v-2c0-1,0-1.9-0.3-2.9L108.1,9c-0.6-2.7-2.1-5-4.5-6.6
		c-2.1-1.5-4.5-2.2-7.1-2.2c-3.3,0-6.2,1.1-8.6,3.3C86.1,5,84,8,84,13v9.1c-0.9-1.3-1.8-2.5-3-3.6c-4-3.9-9.3-5.8-15.6-5.8
		c-1.9,0-3.9,0.2-5.9,0.6c-6.7,1.2-11.8,4.8-15,10.4c-2.1-4.5-6-7.8-11.5-9.5l-0.2-0.1c-3.3-0.9-6-1.2-8.5-1V12c0-3.4-1.4-6.5-4-8.8
		C18,1.1,15.1,0,12,0C8.5,0,5.5,1.3,3.2,3.7C1.1,6,0,9,0,12.2v43.5c0,5.6,2.7,9.9,7.3,11.9l0.6,0.2c2.1,0.6,3.4,0.9,4.7,0.9
		c3.6,0,6.8-1.5,9-4.3c0.6-0.8,1.2-1.6,1.6-2.5c1.1,2.3,2.9,4.1,5.2,5.3c4.4,2.2,9.4,1.7,13-0.9c2.2-1.6,3.7-3.8,4.4-6.4
		c0.2,0.3,0.4,0.6,0.6,0.8c2.9,3.6,8.3,7.8,17.6,7.8c1.4,0,2.8-0.1,4.2-0.3c3.2-0.4,6.1-1.2,8.7-2.5c2.8-1.4,5.1-3.2,6.9-5.3
		c0.2-0.3,0.4-0.5,0.6-0.8c0.1,0.3,0.2,0.6,0.3,0.8c0.8,2.4,2.3,4.4,4.3,5.8c2.1,1.4,4.5,2.2,7.1,2.2c2,0,3.8-0.4,5.4-1.2
		c0.9-0.4,1.8-0.9,2.5-1.5v1.6c0,5.3,2.4,9.5,6.7,11.5c1.8,0.9,3.7,1.4,5.7,1.4c2.6,0,5.1-0.8,7.1-2.2c2.1-1.5,3.7-3.6,4.4-6
		l0.6-1.9v-1.8c4.1,0.2,8-0.7,11.6-2.6c5.4-2.9,11.9-9,11.9-21.3C152.1,38.3,151.7,33.4,150.8,29.4z"/>
	<g>
		<g>
			<g>
				<path class="st1" d="M7,55.8V12.2c0-1.5,0.5-2.8,1.4-3.8C9.3,7.5,10.5,7,12,7s2.7,0.5,3.8,1.4c1.1,1,1.6,2.1,1.6,3.6v11.3
					c0.3-0.4,0.6-0.8,1-1l0.3-0.2l0.7-0.4c2.1-1.2,4.4-1.8,6.8-1.8c1.3,0,2.9,0.3,4.8,0.8c5.6,1.8,8.4,5.6,8.4,11.6v23.3L39.2,58
					c-0.2,1.1-0.8,1.9-1.8,2.6c-0.9,0.7-2,1-3.2,1c-0.9,0-1.8-0.2-2.6-0.7c-1.8-0.9-2.7-2.7-2.7-5.4V35.7L28.8,34
					c0-1.3-0.5-2.4-1.4-3.3c-1-0.9-2.2-1.4-3.6-1.4h-1.2l-0.8,0.3c-1.5,0.4-2.6,1.2-3.2,2.2c-0.6,1.1-1,2.7-1,4.8v19.2
					c0,1.8-0.4,3.2-1.3,4.3c-0.9,1.1-2.1,1.7-3.6,1.7c-0.5,0-1.4-0.2-2.6-0.6C8,60.4,7,58.5,7,55.8z"/>
			</g>
		</g>
		<g>
			<g>
				<path class="st1" d="M81.2,39.3c0,2.2-0.3,3.6-1,4.3c-0.6,0.7-1.9,1.1-3.7,1.1H58.7c-0.1,0-0.2,0.3-0.2,0.9v0.5l0.1,0.8
					c0,0.4,0.1,0.8,0.3,1.1c1,2.6,3,4,6,4c2.3,0,4.5-0.9,6.7-2.8c1.5-1.4,2.8-2.1,3.9-2.1l1.5,0.1c0.7,0,1.4,0.6,2.1,1.5
					c0.7,1,1,2.1,1,3.2c0,1.4-0.6,2.7-1.7,4.1c-1.1,1.3-2.6,2.5-4.5,3.4c-1.9,1-4.1,1.6-6.5,1.9c-1.2,0.1-2.3,0.2-3.4,0.2
					c-5.3,0-9.3-1.7-12.2-5.2c-2.8-3.5-4.3-8.5-4.3-15.1c0-0.8,0.1-2.8,0.4-6c1.1-8.8,5.4-13.8,12.8-15.2c1.6-0.3,3.2-0.4,4.6-0.4
					c4.5,0,8,1.3,10.8,3.9c2.7,2.6,4.3,6.2,4.7,10.8l0.2,2.9L81.2,39.3z M70.3,34.4c0-0.5,0-0.8-0.1-0.9c-0.5-3.1-2.2-4.6-5.2-4.6
					c-2.2,0-3.8,0.7-5,2.2l-0.4,0.7l-0.4,0.7l-0.1,0.4c0,0-0.1,0.1-0.1,0.2c0,0.1,0,0.1-0.1,0.2l-0.1,0.3c0,0-0.1,0.2-0.1,0.5v0.4
					c0,0.4,0.1,0.7,0.3,0.8h11.1L70.3,34.4z"/>
			</g>
		</g>
		<g>
			<g>
				<path class="st1" d="M91,56.3V13c0-2,0.5-3.4,1.6-4.4c1.1-1,2.4-1.5,3.9-1.5c1.2,0,2.2,0.3,3.1,1c0.9,0.6,1.5,1.4,1.7,2.3
					l0.2,1.1c0,0.1,0.1,0.5,0.1,1.2v43.4c0,2.4-1,4.1-3,5c-0.6,0.3-1.4,0.5-2.3,0.5c-1.2,0-2.2-0.3-3.1-1c-0.9-0.6-1.5-1.5-1.8-2.6
					C91.1,57.8,91,57.2,91,56.3z"/>
			</g>
		</g>
		<g>
			<g>
				<path class="st1" d="M111,67.4V24.9c0-1.5,0.2-2.5,0.5-3.2c0.3-0.7,0.9-1.3,1.8-1.8c0.8-0.5,1.8-0.7,2.9-0.7
					c1.8,0,3.1,0.6,4,1.9l0.2,0.3l0.1,0.4l0.2,0.4l0.1,0.3l0.3-0.1l0.4-0.3c2.6-1.8,5.3-2.6,8.2-2.6h1.2l2.1,0.4
					c3,0.6,5.4,1.8,7.2,3.6c1.8,1.8,3,4.4,3.8,7.8c0.8,3.4,1.2,7.9,1.2,13.5c0,7.1-2.7,12.2-8.2,15.2c-2.2,1.2-4.6,1.8-7.2,1.8
					c-1.9,0-3.8-0.4-5.7-1.2l-0.4-0.2l-0.5-0.3l-0.4-0.3l-0.1-0.1l-0.7-0.4l-0.2,0.5l0.1,1.2v8.6l-0.3,0.9c-0.3,1-0.9,1.8-1.8,2.4
					c-0.9,0.6-1.9,1-3.1,1c-0.9,0-1.8-0.2-2.6-0.7C112,71.8,111,70.1,111,67.4z M123.2,49.4c1,1.4,2.6,2.1,4.7,2.1
					c2.3,0,3.9-0.8,4.8-2.5c1-1.7,1.4-4.5,1.4-8.4c0-4.2-0.4-7.1-1.3-9c-0.9-1.8-2.3-2.7-4.3-2.7c-0.6,0-0.9,0-1,0.1l-1,0.2
					c-1.7,0.3-2.9,1.2-3.7,2.7s-1.1,3.8-1.1,7l-0.1,1.8l0.1,2.3C121.6,46,122.1,48.2,123.2,49.4z"/>
			</g>
		</g>
	</g>
</g>
</svg>
